<svg xmlns="http://www.w3.org/2000/svg" width="16" height="16" fill="none" viewBox="0 0 16 16"><g fill="currentColor" clip-path="url(#a)"><path d="M10.85 9.413 8.62 7.74V4.332a.62.62 0 1 0-1.24 0V8.05c0 .195.092.379.248.495l2.479 1.86a.617.617 0 0 0 .867-.125.618.618 0 0 0-.123-.867Z"/><path d="M8 0C3.589 0 0 3.589 0 8c0 4.412 3.589 8 8 8 4.412 0 8-3.588 8-8 0-4.411-3.588-8-8-8Zm0 14.76A6.769 6.769 0 0 1 1.24 8 6.769 6.769 0 0 1 8 1.24 6.769 6.769 0 0 1 14.76 8 6.77 6.77 0 0 1 8 14.76Z"/></g><defs><clipPath id="a"><path fill="#fff" d="M0 0h16v16H0z"/></clipPath></defs></svg>