<svg xmlns="http://www.w3.org/2000/svg" width="31" height="31" fill="none" viewBox="0 0 31 31"><g clip-path="url(#a)"><path fill="#665CAC" d="M18.6 0h-6.2C6.416 0 1.548 4.868 1.548 10.851v4.651c0 4.2 2.423 8.013 6.201 9.806v5.18c0 .449.563.684.882.365l4.5-4.5h5.47c5.983 0 10.85-4.868 10.85-10.851v-4.65C29.452 4.867 24.585 0 18.602 0Z"/><path fill="#523494" d="M9.3 25.308a10.856 10.856 0 0 1-6.202-9.806v-4.65C3.098 4.867 7.966 0 13.95 0H12.4C6.416 0 1.548 4.868 1.548 10.851v4.651c0 4.2 2.423 8.013 6.201 9.806v5.18c0 .449.563.684.882.365l.668-.668v-4.877Z"/><path fill="#fff" d="m23.301 19.26-.464-2.517a.517.517 0 0 0-.407-.413l-3.654-.73a.517.517 0 0 0-.467.141l-1.484 1.485c-2.501-1.121-3.89-2.512-5.11-5.12l1.48-1.48a.517.517 0 0 0 .14-.467l-.73-3.654a.517.517 0 0 0-.413-.407l-2.517-.464a.518.518 0 0 0-.208.004c-.665.15-1.271.486-1.754.968-.835.836-1.155 2.055-.923 3.527.388 2.47 1.599 5.909 3.832 8.151l.03.03c2.241 2.232 5.68 3.443 8.15 3.831.312.05.611.074.899.074 1.071 0 1.969-.338 2.628-.997a3.606 3.606 0 0 0 .968-1.754.52.52 0 0 0 .004-.208Z"/><path fill="#E5E5E5" d="m12.689 11.13.505-.504-.505.505ZM18.31 15.74l-.51.51.51-.51Z"/><path fill="#E5E5E5" d="M20.675 21.244a5.77 5.77 0 0 1-.898-.073c-2.471-.389-5.91-1.6-8.15-3.831l-.03-.03c-2.234-2.243-3.444-5.681-3.833-8.152-.187-1.188-.014-2.213.5-3.003a3.618 3.618 0 0 0-.55.451c-.837.836-1.156 2.055-.924 3.527.388 2.47 1.599 5.909 3.832 8.151l.03.03c2.241 2.232 5.68 3.443 8.15 3.831.311.05.611.074.899.074 1.071 0 1.969-.338 2.628-.997.169-.17.32-.354.45-.551-.583.38-1.294.573-2.104.573Z"/><path fill="#fff" d="M16.533 8.784a.517.517 0 0 0 0 1.034 2.07 2.07 0 0 1 2.067 2.067c0 .281.236.517.517.517a.522.522 0 0 0 .517-.517c0-1.71-1.391-3.1-3.1-3.1Z"/><path fill="#fff" d="M16.534 6.717c-.192 0-.385.011-.574.032a.517.517 0 0 0 .113 1.027 4.138 4.138 0 0 1 4.569 4.569c-.03.28.177.54.457.57.28.031.54-.177.57-.457a5.173 5.173 0 0 0-5.136-5.74Z"/><path fill="#fff" d="M16.534 4.65c-.185 0-.372.008-.556.022a.517.517 0 1 0 .078 1.03 6.208 6.208 0 0 1 6.513 7.614.522.522 0 0 0 .366.617.522.522 0 0 0 .64-.38 7.266 7.266 0 0 0 .193-1.668c0-3.99-3.245-7.234-7.234-7.234Z"/></g><defs><clipPath id="a"><path fill="#fff" d="M0 0h31v31H0z"/></clipPath></defs></svg>